<svg xmlns="http://www.w3.org/2000/svg" width="32" height="32" viewBox="0 0 6 6" fill="none" class="injected-svg" data-src="https://cdn.hugeicons.com/icons/package-03-solid-rounded.svg?v=1.0.1" xmlns:xlink="http://www.w3.org/1999/xlink" role="img" color="#000000"><path fill-rule="evenodd" clip-rule="evenodd" d="M5.438 4.5V1.5c0 -0.203 -0.16 -0.32 -0.297 -0.395 -0.144 -0.08 -0.354 -0.16 -0.608 -0.258l-1.091 -0.419c-0.172 -0.066 -0.302 -0.116 -0.442 -0.116 -0.14 0 -0.27 0.05 -0.442 0.116L1.468 0.848c-0.254 0.098 -0.463 0.178 -0.608 0.257 -0.137 0.075 -0.297 0.193 -0.297 0.395v3c0 0.203 0.16 0.32 0.297 0.395 0.144 0.08 0.354 0.16 0.608 0.258l1.091 0.419c0.172 0.066 0.302 0.116 0.442 0.116 0.14 0 0.27 -0.05 0.442 -0.116l1.091 -0.419c0.254 -0.098 0.464 -0.178 0.608 -0.258 0.137 -0.075 0.297 -0.193 0.297 -0.395M2.665 0.789c0.212 -0.081 0.274 -0.102 0.335 -0.102s0.123 0.021 0.335 0.102l1.049 0.403c0.272 0.105 0.457 0.176 0.576 0.241 0.059 0.033 0.097 0.067 0.097 0.067s-0.038 0.034 -0.097 0.067c-0.119 0.065 -0.304 0.137 -0.576 0.241l-1.048 0.403c-0.212 0.081 -0.274 0.102 -0.335 0.102s-0.123 -0.021 -0.335 -0.102l-1.049 -0.403c-0.272 -0.105 -0.457 -0.176 -0.576 -0.241C0.982 1.534 0.943 1.5 0.943 1.5s0.038 -0.034 0.097 -0.067c0.119 -0.065 0.304 -0.137 0.576 -0.241zm0.147 1.871v2.606l-1.196 -0.458c-0.272 -0.104 -0.457 -0.176 -0.576 -0.241 -0.072 -0.04 -0.102 -0.073 -0.102 -0.073V1.935c0.138 0.067 0.318 0.136 0.53 0.217l1.09 0.419c0.095 0.036 0.177 0.068 0.255 0.089" fill="#000000"/><path d="M4.125 1 1.75 2v0.625" stroke="#000000" stroke-width="0.375" stroke-linecap="round" stroke-linejoin="round"/><path d="M1.375 4.023v-0.209c0 -0.174 0 -0.261 0.056 -0.298 0.056 -0.037 0.135 -0.003 0.292 0.065l0.375 0.163c0.073 0.032 0.11 0.048 0.131 0.08s0.021 0.072 0.021 0.153v0.209c0 0.174 0 0.261 -0.056 0.298s-0.135 0.003 -0.292 -0.065l-0.375 -0.163c-0.073 -0.032 -0.11 -0.048 -0.131 -0.08s-0.021 -0.072 -0.021 -0.153" fill="#000000"/></svg>