<svg xmlns="http://www.w3.org/2000/svg" width="32" height="32" viewBox="0 0 6 6" fill="none" class="injected-svg" data-src="https://cdn.hugeicons.com/icons/cheese-solid-rounded.svg?v=1.0.1" xmlns:xlink="http://www.w3.org/1999/xlink" role="img" color="#000000"><path fill-rule="evenodd" clip-rule="evenodd" d="M4.252 2.053c0 0.138 -0.112 0.25 -0.249 0.25h-0.002a0.25 0.25 0 0 1 -0.249 -0.25c0 -0.138 0.111 -0.25 0.249 -0.25h0.003c0.137 0 0.249 0.112 0.249 0.25" fill="#000000"/><path fill-rule="evenodd" clip-rule="evenodd" d="M5.548 2.318a0.188 0.188 0 0 1 0.14 0.181v0.941c0 0.325 0 0.586 -0.026 0.792 -0.026 0.215 -0.083 0.396 -0.214 0.547 -0.117 0.135 -0.266 0.212 -0.444 0.263 -0.172 0.049 -0.385 0.075 -0.64 0.103 -0.163 0.018 -0.283 -0.09 -0.335 -0.197A0.313 0.313 0 0 0 3.75 4.766c-0.14 0 -0.265 0.1 -0.302 0.246 -0.029 0.114 -0.125 0.241 -0.285 0.258l-1.009 0.105c-0.372 0.038 -0.672 0.07 -0.91 0.06 -0.246 -0.01 -0.456 -0.065 -0.626 -0.224 -0.168 -0.158 -0.24 -0.367 -0.273 -0.617 -0.033 -0.242 -0.033 -0.555 -0.033 -0.946v-0.89a0.188 0.188 0 0 1 0.32 -0.133c0.035 0.035 0.126 0.077 0.32 0.102 0.184 0.023 0.423 0.026 0.711 0.018 0.203 -0.005 0.431 -0.017 0.676 -0.028 0.432 -0.021 0.917 -0.044 1.411 -0.044 0.608 0 1.01 -0.059 1.264 -0.129 0.127 -0.035 0.212 -0.071 0.266 -0.102 0.045 -0.025 0.059 -0.041 0.059 -0.041a0.188 0.188 0 0 1 0.208 -0.085m-1.046 1.484a0.25 0.25 0 0 1 -0.25 0.25h-0.003a0.25 0.25 0 1 1 0 -0.5h0.003a0.25 0.25 0 0 1 0.25 0.25M2.125 3.49a0.563 0.563 0 1 1 0 1.125 0.563 0.563 0 0 1 0 -1.125" fill="#000000"/><path fill-rule="evenodd" clip-rule="evenodd" d="m3.504 1.185 0.002 0.021c0.001 0.014 0.003 0.032 0.003 0.051 0 0.398 -0.329 0.722 -0.737 0.722 -0.157 0 -0.302 -0.048 -0.422 -0.13 -0.044 0.008 -0.113 0.029 -0.203 0.067C1.968 1.99 1.742 2.111 1.522 2.25s-0.427 0.287 -0.57 0.413l-0.045 0.041 0.006 0c0.18 0.013 0.45 0.002 0.839 -0.014l2.819 -0.115q0.238 -0.009 0.394 -0.049c0.105 -0.027 0.164 -0.06 0.194 -0.089 0.024 -0.022 0.04 -0.05 0.041 -0.104 0.001 -0.064 -0.019 -0.166 -0.093 -0.318 -0.202 -0.418 -0.567 -0.756 -1.021 -0.939 -0.191 -0.077 -0.341 -0.025 -0.581 0.109M3.192 0.809c0.267 -0.154 0.627 -0.357 1.079 -0.175 0.564 0.228 1.021 0.648 1.276 1.177 0.091 0.188 0.143 0.366 0.14 0.531 -0.003 0.174 -0.068 0.324 -0.189 0.438 -0.114 0.108 -0.262 0.17 -0.41 0.208 -0.15 0.038 -0.321 0.057 -0.497 0.064l-2.837 0.116c-0.367 0.015 -0.664 0.027 -0.876 0.013 -0.107 -0.007 -0.215 -0.022 -0.307 -0.059 -0.098 -0.04 -0.202 -0.114 -0.244 -0.245a0.32 0.32 0 0 1 0.009 -0.211c0.019 -0.051 0.047 -0.095 0.074 -0.132 0.055 -0.074 0.132 -0.151 0.215 -0.224 0.169 -0.148 0.398 -0.313 0.632 -0.46 0.235 -0.147 0.485 -0.283 0.697 -0.372 0.105 -0.043 0.21 -0.08 0.306 -0.097a0.6 0.6 0 0 1 0.158 -0.009c0.054 0.005 0.13 0.021 0.196 0.075a0.25 0.25 0 0 0 0.158 0.056 0.246 0.246 0 0 0 0.248 -0.245 0.5 0.5 0 0 0 -0.004 -0.042v-0.001c-0.003 -0.021 -0.006 -0.059 -0.005 -0.099a0.356 0.356 0 0 1 0.181 -0.306" fill="#000000"/></svg>