<svg xmlns="http://www.w3.org/2000/svg" width="32" height="32" viewBox="0 0 6 6" fill="none" class="injected-svg" data-src="https://cdn.hugeicons.com/icons/steak-solid-rounded.svg?v=1.0.1" xmlns:xlink="http://www.w3.org/1999/xlink" role="img" color="#000000"><path fill-rule="evenodd" clip-rule="evenodd" d="M1.28 1.31C1.805 1.002 2.462 0.813 3 0.813c1.044 0 1.825 0.309 2.4 1.075a1.433 1.433 0 0 1 0.287 0.896l0.001 0.013v0.957c0 0.792 -0.656 1.435 -1.466 1.435a1.482 1.482 0 0 1 -0.81 -0.239l-0.005 -0.004 -0.005 -0.004c-0.499 -0.364 -1.098 -0.477 -1.371 -0.471h-0.023c-0.331 0 -0.604 0 -0.82 -0.028 -0.227 -0.03 -0.427 -0.095 -0.587 -0.252 -0.16 -0.157 -0.227 -0.353 -0.257 -0.575 -0.029 -0.211 -0.029 -0.478 -0.029 -0.802v-0.137q0 -0.009 0.001 -0.018L0.313 2.625c0 -0.559 0.454 -1.014 0.968 -1.315M0.81 3.374q0.005 0.098 0.016 0.177c0.023 0.169 0.064 0.247 0.118 0.3 0.054 0.053 0.134 0.093 0.307 0.116 0.179 0.024 0.418 0.024 0.769 0.024 0.372 -0.008 1.075 0.133 1.667 0.561a0.988 0.988 0 0 0 0.535 0.156c0.512 0 0.932 -0.386 0.974 -0.876A1.433 1.433 0 0 1 4.25 4.188a1.433 1.433 0 0 1 -0.795 -0.239l-0.004 -0.003 -0.004 -0.003c-0.522 -0.39 -1.149 -0.512 -1.442 -0.504H1.125c-0.112 0 -0.218 -0.022 -0.315 -0.064M3.688 2.75a0.563 0.563 0 1 1 1.125 0 0.563 0.563 0 0 1 -1.125 0" fill="#000000"/></svg>