<svg xmlns="http://www.w3.org/2000/svg" width="32" height="32" viewBox="0 0 6 6" fill="none" class="injected-svg" data-src="https://cdn.hugeicons.com/icons/coffee-02-solid-rounded.svg?v=1.0.1" xmlns:xlink="http://www.w3.org/1999/xlink" role="img" color="#000000"><path fill-rule="evenodd" clip-rule="evenodd" d="M4.282 2.656a0.25 0.25 0 0 1 0.25 -0.25h0.347c0.119 0 0.229 0.004 0.325 0.018 0.095 0.014 0.194 0.04 0.281 0.095 0.206 0.132 0.239 0.351 0.233 0.541 -0.01 0.304 -0.085 0.655 -0.313 0.958 -0.231 0.308 -0.6 0.537 -1.143 0.633a0.25 0.25 0 0 1 -0.087 -0.492c0.442 -0.078 0.689 -0.252 0.831 -0.442 0.146 -0.194 0.204 -0.433 0.212 -0.675a0.375 0.375 0 0 0 -0.007 -0.105 0.325 0.325 0 0 0 -0.08 -0.019 1.75 1.75 0 0 0 -0.253 -0.013h-0.347a0.25 0.25 0 0 1 -0.25 -0.25" fill="#000000"/><path d="M0.765 1.991c0.104 -0.017 0.227 -0.022 0.368 -0.022h2.671c0.141 0 0.264 0.005 0.368 0.022 0.103 0.017 0.203 0.048 0.286 0.109 0.18 0.134 0.202 0.35 0.198 0.559 -0.018 0.967 -0.142 1.968 -1.059 2.674 -0.137 0.105 -0.27 0.173 -0.421 0.212 -0.147 0.038 -0.302 0.048 -0.477 0.048h-0.46c-0.175 0 -0.33 -0.009 -0.477 -0.048 -0.15 -0.04 -0.283 -0.107 -0.421 -0.212 -0.917 -0.706 -1.041 -1.707 -1.059 -2.674 -0.004 -0.209 0.018 -0.425 0.198 -0.559 0.083 -0.062 0.183 -0.092 0.286 -0.11" fill="#000000"/><path d="M3.009 0.525a0.25 0.25 0 0 1 -0.081 0.344c-0.015 0.009 -0.07 0.06 -0.122 0.165a0.85 0.85 0 0 0 -0.086 0.372 0.25 0.25 0 1 1 -0.5 0c0 -0.23 0.058 -0.434 0.139 -0.595 0.077 -0.155 0.185 -0.292 0.307 -0.367a0.25 0.25 0 0 1 0.344 0.081" fill="#000000"/><path d="M3.682 0.9a0.25 0.25 0 0 1 -0.045 0.317q-0.007 0.015 -0.018 0.045a0.55 0.55 0 0 0 -0.025 0.144 0.25 0.25 0 1 1 -0.5 0c0 -0.093 0.02 -0.202 0.049 -0.293 0.015 -0.047 0.034 -0.097 0.059 -0.143 0.021 -0.039 0.063 -0.106 0.136 -0.151a0.25 0.25 0 0 1 0.344 0.081" fill="#000000"/><path d="M2.037 0.862a0.25 0.25 0 0 1 -0.008 0.348l-0.002 0.003a0.25 0.25 0 0 0 -0.021 0.032 0.338 0.338 0 0 0 -0.037 0.163 0.25 0.25 0 1 1 -0.5 0c0 -0.172 0.047 -0.306 0.098 -0.4 0.025 -0.046 0.076 -0.12 0.117 -0.158a0.25 0.25 0 0 1 0.353 0.013" fill="#000000"/></svg>