<svg xmlns="http://www.w3.org/2000/svg" width="32" height="32" viewBox="0 0 6 6" fill="none" class="injected-svg" data-src="https://cdn.hugeicons.com/icons/apple-01-solid-rounded.svg?v=1.0.1" xmlns:xlink="http://www.w3.org/1999/xlink" role="img" color="#000000"><path fill-rule="evenodd" clip-rule="evenodd" d="M2 1.094c-0.417 0 -0.779 0.227 -1.03 0.541a1.875 1.875 0 0 0 -0.407 1.153c0 0.905 0.131 1.572 0.656 2.364l0.006 0.009c0.209 0.28 0.467 0.473 0.765 0.536 0.301 0.064 0.614 -0.012 0.916 -0.211a0.18 0.18 0 0 1 0.186 0c0.302 0.2 0.615 0.275 0.916 0.211 0.299 -0.063 0.557 -0.256 0.765 -0.536l0.006 -0.009c0.525 -0.792 0.656 -1.459 0.656 -2.364a1.875 1.875 0 0 0 -0.407 -1.153C4.779 1.321 4.417 1.094 4 1.094c-0.405 0 -0.756 0.211 -1 0.428 -0.244 -0.217 -0.595 -0.428 -1 -0.428m0.132 1.15A0.25 0.25 0 0 0 1.867 1.819C1.487 2.056 1.25 2.553 1.25 3.031a0.25 0.25 0 1 0 0.5 0c0 -0.339 0.174 -0.658 0.382 -0.788" fill="#000000"/><path fill-rule="evenodd" clip-rule="evenodd" d="M3.37 1.025c-0.087 0.162 -0.12 0.367 -0.12 0.506a0.25 0.25 0 1 1 -0.5 0c0 -0.195 0.043 -0.489 0.18 -0.744 0.143 -0.266 0.405 -0.506 0.82 -0.506a0.25 0.25 0 1 1 0 0.5c-0.184 0 -0.298 0.093 -0.38 0.244" fill="#000000"/></svg>